<svg width="24" height="25" viewBox="0 0 24 25" fill="none" xmlns="http://www.w3.org/2000/svg">
<path d="M12 22.9248C17.5228 22.9248 22 18.4477 22 12.9248C22 7.40196 17.5228 2.9248 12 2.9248C6.47715 2.9248 2 7.40196 2 12.9248C2 18.4477 6.47715 22.9248 12 22.9248Z" stroke="white" stroke-width="1.5"/>
<path d="M16 16.9248C15.5148 16.3251 14.9068 15.8363 14.2168 15.4913C13.5268 15.1463 12.7709 14.9531 12 14.9248C11.2291 14.9531 10.4732 15.1463 9.78323 15.4913C9.09325 15.8363 8.48519 16.3251 8 16.9248" stroke="white" stroke-width="1.5"/>
<path d="M15 11.4248V8.9248" stroke="white" stroke-width="1.5"/>
<path d="M9 11.4248V8.9248" stroke="white" stroke-width="1.5"/>
</svg>
