<svg width="25" height="29" viewBox="0 0 25 29" fill="none" xmlns="http://www.w3.org/2000/svg">
<path d="M20.833 11.3042C20.5625 11.9331 20.2117 12.5157 19.7913 13.0341M19.7913 13.0341C18.9782 14.2191 17.9489 15.2014 16.7705 15.9173M19.7913 13.0341L22.9163 14.764M12.4997 17.0706C11.0116 17.0848 9.54384 16.6885 8.22884 15.9173M12.4997 17.0706C13.9877 17.0848 15.4555 16.6885 16.7705 15.9173M12.4997 17.0706L12.4997 21.107M8.22884 15.9173L5.20801 19.3771M8.22884 15.9173C7.12628 15.1777 6.14094 14.2427 5.31217 13.1494M16.7705 15.9173L19.2705 19.3771M4.16634 11.3042C4.51238 11.9457 4.8951 12.562 5.31217 13.1494M5.31217 13.1494L2.08301 14.764" stroke="white" stroke-width="1.5"/>
</svg>
