<svg width="28" height="28" viewBox="0 0 28 28" fill="none" xmlns="http://www.w3.org/2000/svg">
<path d="M11.181 12.6818C13.6945 12.6818 15.7321 10.6442 15.7321 8.13068C15.7321 5.61718 13.6945 3.57959 11.181 3.57959C8.66747 3.57959 6.62988 5.61718 6.62988 8.13068C6.62988 10.6442 8.66747 12.6818 11.181 12.6818Z" stroke="white" stroke-width="1.57538"/>
<path d="M2.65039 23.4905V19.8095C2.65039 19.2524 2.87169 18.7181 3.26561 18.3242L5.14575 16.4441C5.70834 15.8815 6.54049 15.685 7.29527 15.9366L10.5194 17.0114C10.9506 17.1551 11.4168 17.1551 11.8479 17.0114L15.0721 15.9366C15.8269 15.685 16.659 15.8815 17.2216 16.4441L19.1017 18.3242C19.4957 18.7181 19.717 19.2524 19.717 19.8095V23.4905" stroke="white" stroke-width="1.57538"/>
<path d="M24.2644 4.71729L21.7807 7.55585C21.1965 8.22349 21.6706 9.26837 22.5578 9.26837V9.26837C23.4449 9.26837 23.919 10.3133 23.3349 10.9809L20.8511 13.8195" stroke="white" stroke-width="1.57538" stroke-miterlimit="10"/>
</svg>
