<svg width="24" height="25" viewBox="0 0 24 25" fill="none" xmlns="http://www.w3.org/2000/svg">
<path d="M3 4.5H19.3636" stroke="white" stroke-width="2.5" stroke-linecap="round" stroke-linejoin="round"/>
<path d="M3 12.2461H13" stroke="white" stroke-width="2.5" stroke-linecap="round" stroke-linejoin="round"/>
<path d="M3 19.9941H11.1818" stroke="white" stroke-width="2.5" stroke-linecap="round" stroke-linejoin="round"/>
<path fill-rule="evenodd" clip-rule="evenodd" d="M19.9093 15.7535V11.8818C20.0549 12.0125 20.2007 12.1458 20.3426 12.2776C20.6346 12.5487 20.8959 12.7996 21.0843 12.9827C21.1783 13.0741 21.2539 13.1484 21.3057 13.1995L21.3647 13.258L21.3796 13.2728L21.3831 13.2763L21.3839 13.2771L21.384 13.2772L21.384 13.2772C21.7746 13.6677 22.4077 13.6677 22.7982 13.2772C23.1887 12.8867 23.1887 12.2535 22.7982 11.863L22.0911 12.5701C22.7982 11.863 22.7982 11.8629 22.7981 11.8629L22.798 11.8628L22.7976 11.8624L22.7963 11.8611L22.7917 11.8565L22.7747 11.8396L22.7109 11.7764C22.6559 11.7221 22.5766 11.6441 22.4784 11.5487C22.2823 11.358 22.0095 11.0962 21.7035 10.812C21.11 10.2609 20.3294 9.56733 19.7413 9.1756C18.8713 8.59612 17.9093 9.31917 17.9093 10.1664V14.4118C17.7903 14.396 17.6689 14.3878 17.5456 14.3878C16.0394 14.3878 14.8184 15.6088 14.8184 17.1151C14.8184 18.6213 16.0394 19.8423 17.5456 19.8423C19.0519 19.8423 20.2729 18.6213 20.2729 17.1151C20.2729 16.6192 20.1406 16.1542 19.9093 15.7535Z" fill="white"/>
</svg>
