<svg width="24" height="21" viewBox="0 0 24 21" fill="none" xmlns="http://www.w3.org/2000/svg">
<path d="M16.6237 6.78447C14.4026 6.90051 12.4712 7.57382 10.9031 9.095C9.31883 10.6319 8.59562 12.5151 8.7933 14.8497C7.92516 14.7422 7.13443 14.6238 6.33921 14.5569C6.06457 14.5337 5.73865 14.5666 5.50602 14.6979C4.73382 15.1336 3.99355 15.6255 3.11614 16.174C3.27713 15.4458 3.38134 14.8082 3.56581 14.1949C3.70148 13.7441 3.63864 13.4932 3.22337 13.1997C0.557112 11.3173 -0.56678 8.50012 0.274305 5.59976C1.05246 2.91662 2.96341 1.2894 5.55995 0.441159C9.10399 -0.716491 13.0869 0.464366 15.2419 3.27813C16.0203 4.29452 16.4975 5.43529 16.6237 6.78447ZM6.40141 5.88073C6.42186 5.35025 5.9622 4.87233 5.41621 4.85637C4.8572 4.83995 4.39744 5.26714 4.38112 5.81799C4.3646 6.37627 4.79161 6.82364 5.35466 6.83795C5.91285 6.85208 6.38077 6.42433 6.40141 5.88073ZM11.7348 4.856C11.1868 4.86609 10.7237 5.33282 10.7334 5.86541C10.7434 6.41745 11.1977 6.84932 11.7612 6.84254C12.3261 6.83575 12.7546 6.39929 12.7493 5.8356C12.7446 5.28228 12.2924 4.84582 11.7348 4.856Z" fill="white"/>
<path d="M21.6142 20.6316C20.9109 20.3184 20.2658 19.8486 19.5789 19.7769C18.8946 19.7054 18.1754 20.1001 17.4595 20.1733C15.279 20.3964 13.3255 19.7887 11.7147 18.2991C8.6511 15.4655 9.08885 11.1207 12.6333 8.79864C15.7834 6.73487 20.4033 7.42285 22.6243 10.2864C24.5625 12.7852 24.3347 16.1022 21.9686 18.2014C21.2839 18.8089 21.0375 19.3088 21.4768 20.1098C21.5579 20.2576 21.5671 20.4448 21.6142 20.6316ZM13.6084 12.8804C14.0562 12.8809 14.4249 12.5305 14.4418 12.0882C14.4597 11.62 14.0832 11.2273 13.6143 11.2254C13.1502 11.2233 12.7613 11.6215 12.7775 12.0827C12.7927 12.5234 13.1639 12.8799 13.6084 12.8804ZM18.7693 11.2272C18.3349 11.2242 17.9658 11.5798 17.9481 12.0188C17.9293 12.4882 18.2941 12.8736 18.7586 12.8748C19.2079 12.8763 19.5629 12.5365 19.5792 12.0894C19.5967 11.6189 19.2317 11.2304 18.7693 11.2272Z" fill="white"/>
</svg>
