<svg width="56" height="56" viewBox="0 0 56 56" fill="none" xmlns="http://www.w3.org/2000/svg">
<circle cx="28" cy="28" r="28" fill="#161F6E"/>
<path d="M26.098 36.0662C22.121 36.4572 18.684 34.6602 18.426 32.0462C18.167 29.4372 21.185 26.9992 25.166 26.6052C29.145 26.2112 32.579 28.0092 32.837 30.6232C33.096 33.2232 30.078 35.6722 26.1 36.0622L26.098 36.0662ZM25.05 32.9622C24.666 33.5782 23.842 33.8462 23.221 33.5642C22.609 33.2852 22.428 32.5732 22.815 31.9712C23.194 31.3762 23.991 31.1102 24.608 31.3702C25.23 31.6332 25.428 32.3422 25.05 32.9622ZM26.32 31.3352C26.179 31.5722 25.871 31.6882 25.631 31.5882C25.395 31.4982 25.318 31.2272 25.454 31.0022C25.592 30.7752 25.89 30.6562 26.126 30.7622C26.365 30.8522 26.441 31.1222 26.306 31.3632L26.32 31.3352ZM26.496 28.6162C24.603 28.1232 22.463 29.0662 21.639 30.7342C20.803 32.4382 21.613 34.3252 23.525 34.9442C25.508 35.5842 27.843 34.6032 28.657 32.7652C29.457 30.9722 28.456 29.1232 26.496 28.6162ZM34.059 27.3922C33.713 27.2872 33.489 27.2122 33.654 26.7772C34.029 25.8002 34.074 24.9732 33.654 24.3732C32.873 23.2612 30.739 23.3202 28.29 24.3432C28.29 24.3432 27.524 24.6742 27.719 24.0722C28.095 22.8552 28.034 21.8482 27.449 21.2632C26.111 19.9262 22.58 21.3082 19.561 24.3432C17.309 26.6132 16 29.0162 16 31.0912C16 35.0722 21.099 37.4862 26.086 37.4862C32.622 37.4862 36.974 33.6852 36.974 30.6662C36.974 28.8442 35.427 27.8122 34.059 27.3822V27.3922ZM35.967 22.3002C35.201 21.4442 34.059 21.1132 33.007 21.3382C32.571 21.4282 32.301 21.8492 32.391 22.2702C32.481 22.6902 32.902 22.9612 33.323 22.8722C33.834 22.7672 34.39 22.9162 34.765 23.3372C35.141 23.7582 35.231 24.3142 35.081 24.8102C34.945 25.2162 35.17 25.6662 35.591 25.8022C35.996 25.9212 36.448 25.6972 36.583 25.2902C36.913 24.2692 36.703 23.1122 35.937 22.2552L35.967 22.3002ZM38.385 20.1052C36.809 18.3482 34.48 17.6862 32.331 18.1372C31.835 18.2412 31.519 18.7242 31.625 19.2182C31.729 19.7142 32.211 20.0312 32.707 19.9252C34.239 19.5942 35.892 20.0752 37.003 21.3082C38.115 22.5542 38.432 24.2512 37.95 25.7242C37.785 26.2042 38.056 26.7312 38.536 26.8812C39.015 27.0462 39.527 26.7772 39.693 26.2952C40.368 24.2072 39.934 21.8172 38.355 20.0602L38.385 20.1052Z" fill="white"/>
</svg>
