<svg width="56" height="56" viewBox="0 0 56 56" fill="none" xmlns="http://www.w3.org/2000/svg">
<circle cx="28" cy="28" r="28" fill="#161F6E"/>
<path d="M43.6072 25.2475C43.6102 25.2715 43.6222 25.2775 43.7122 25.276H44.7997C44.9793 25.2766 45.1567 25.2366 45.3187 25.1592C45.4808 25.0818 45.6233 24.9688 45.7357 24.8287C45.8482 24.6887 45.9276 24.525 45.9681 24.3501C46.0085 24.1751 46.0091 23.9932 45.9697 23.818C45.906 23.5249 45.734 23.2666 45.4882 23.0948C45.2424 22.9229 44.9408 22.8502 44.6437 22.891C44.3551 22.9287 44.0903 23.0706 43.8991 23.29C43.708 23.5093 43.6036 23.791 43.6057 24.082C43.6057 24.2335 43.6027 25.081 43.6072 25.2475ZM26.3437 32.4595C26.0392 32.461 24.3142 32.4655 23.8162 32.464C23.4257 32.4612 23.038 32.3974 22.6672 32.275C22.6584 32.2724 22.649 32.2731 22.6407 32.277C22.6324 32.2809 22.6258 32.2876 22.6222 32.296L21.5497 34.6195C21.5458 34.6279 21.5451 34.6375 21.5479 34.6464C21.5507 34.6553 21.5567 34.6628 21.5647 34.6675C21.7312 34.7575 22.0687 34.8535 22.3072 34.8535C23.2972 34.8685 24.2872 34.8565 25.2787 34.8535C25.2957 34.8535 25.3072 34.846 25.3132 34.831L26.3812 32.5135C26.3841 32.5076 26.3854 32.501 26.3849 32.4945C26.3845 32.4879 26.3824 32.4816 26.3787 32.4761C26.3751 32.4707 26.3701 32.4662 26.3642 32.4633C26.3583 32.4604 26.3517 32.4591 26.3452 32.4595H26.3437ZM10.7152 25.294C10.6087 25.294 10.6012 25.297 10.6012 25.309L10.5862 25.429C10.5457 26.0245 10.5292 26.1715 10.2352 30.019C10.2172 30.379 10.1842 30.6025 10.0327 30.9295C9.99366 31.015 9.98316 30.9925 10.0372 31.0975C10.1062 31.2355 11.0587 33.382 11.2177 33.7075C11.2297 33.73 11.2342 33.7375 11.2432 33.7375C11.2552 33.7375 11.2927 33.6985 11.3137 33.6715C11.5327 33.3895 11.7182 33.0865 11.8702 32.7625C12.3292 31.81 12.5302 30.775 12.5992 30.2035C12.6202 30.0385 12.6307 29.8735 12.6442 29.7085L12.9502 25.7845L12.9832 25.345C12.9877 25.3015 12.9832 25.2955 12.9382 25.294H10.7152ZM21.5197 30.9295C21.3848 30.645 21.3156 30.3338 21.3172 30.019C21.3112 29.893 21.2707 29.434 20.9647 25.429C20.9639 25.3876 20.9589 25.3464 20.9497 25.306C20.9437 25.2895 20.8717 25.294 20.8357 25.294H18.6157C18.5707 25.2955 18.5647 25.3015 18.5707 25.345L18.6022 25.7845C18.7162 27.2575 18.8327 28.7305 18.9517 30.2035C19.0267 30.8035 19.2307 31.831 19.6822 32.7625C19.8367 33.085 20.0167 33.391 20.2372 33.6715C20.2597 33.6985 20.2927 33.748 20.3092 33.745C20.3392 33.7405 21.4222 31.282 21.5152 31.0975C21.5692 30.9925 21.5602 31.015 21.5197 30.9295ZM27.3112 29.56H26.0032C25.9714 29.5603 25.9401 29.5526 25.9121 29.5376C25.8841 29.5226 25.8603 29.5008 25.843 29.4742C25.8256 29.4476 25.8153 29.417 25.8129 29.3854C25.8104 29.3537 25.8161 29.3219 25.8292 29.293L27.5962 25.3555C27.5987 25.3498 27.5997 25.3435 27.5992 25.3373C27.5986 25.3311 27.5966 25.3251 27.5931 25.3199C27.5897 25.3147 27.585 25.3104 27.5795 25.3075C27.574 25.3045 27.5679 25.303 27.5617 25.303L25.5847 25.2985C25.5473 25.2987 25.5106 25.2894 25.4778 25.2716C25.445 25.2538 25.4172 25.228 25.397 25.1966C25.3768 25.1651 25.3649 25.1292 25.3623 25.0919C25.3597 25.0547 25.3665 25.0174 25.3822 24.9835L26.6962 22.0525C26.6987 22.0468 26.6997 22.0405 26.6992 22.0343C26.6986 22.0281 26.6966 22.0221 26.6931 22.0169C26.6897 22.0117 26.685 22.0074 26.6795 22.0045C26.674 22.0015 26.6679 22 26.6617 22H24.3217C24.3047 22 24.2927 22.0075 24.2857 22.0225L22.8967 25.1245C22.7692 25.378 22.4257 26.0755 22.2982 26.5315C22.2697 26.6242 22.2596 26.7215 22.2682 26.818C22.2734 26.9339 22.3077 27.0466 22.368 27.1457C22.4283 27.2448 22.5126 27.3271 22.6132 27.385C22.8255 27.4991 23.0622 27.5603 23.3032 27.5635H24.1882C24.2497 27.5635 23.1562 29.7865 22.9372 30.5215C22.9107 30.6048 22.899 30.6921 22.9027 30.7795C22.9042 30.9002 22.9368 31.0185 22.9972 31.1231C23.0576 31.2276 23.1438 31.3149 23.2477 31.3765C23.4727 31.5145 23.7607 31.5565 23.9602 31.5565L26.4502 31.555C26.4672 31.555 26.4787 31.5475 26.4847 31.5325L27.3472 29.6125C27.3497 29.6067 27.3507 29.6003 27.3501 29.5939C27.3495 29.5876 27.3473 29.5815 27.3437 29.5763C27.3401 29.571 27.3353 29.5668 27.3296 29.5639C27.3239 29.5611 27.3175 29.5597 27.3112 29.56ZM16.9162 22.1545H14.6497C14.643 22.1541 14.6363 22.1551 14.63 22.1574C14.6237 22.1597 14.618 22.1633 14.6132 22.168C14.6084 22.1726 14.6046 22.1782 14.6021 22.1844C14.5996 22.1906 14.5984 22.1973 14.5987 22.204C14.5987 23.776 14.5837 26.3965 14.5837 32.4475C14.5837 32.8795 14.1802 32.8405 14.1637 32.8405H13.0537C12.9937 32.842 12.9877 32.8465 12.9937 32.911C12.9952 32.9665 13.6912 34.507 13.8262 34.8055C13.8412 34.8355 13.8712 34.855 13.9027 34.855C14.1382 34.8595 15.0532 34.8685 15.3097 34.834C15.5392 34.804 15.7597 34.744 15.9667 34.636C16.4167 34.402 16.7017 34.0075 16.8592 33.4885C16.9372 33.2305 16.9717 32.959 16.9717 32.689C16.9747 29.194 16.9712 25.6985 16.9612 22.2025C16.9616 22.1961 16.9607 22.1896 16.9584 22.1836C16.9562 22.1776 16.9526 22.1721 16.9481 22.1676C16.9435 22.163 16.9381 22.1595 16.932 22.1572C16.926 22.155 16.9196 22.1541 16.9132 22.1545H16.9162ZM34.5922 32.4985C34.5902 32.4785 34.5782 32.4675 34.5562 32.4655H32.3587C32.2867 32.464 32.2852 32.4625 32.2837 32.392V25.402C32.2837 25.294 32.2762 25.297 32.3887 25.297H33.6832C33.8032 25.297 33.7957 25.303 33.7957 25.186V23.0185C33.7957 22.8955 33.8047 22.9045 33.6757 22.9045H28.4257C28.3297 22.9045 28.3132 22.8955 28.3132 23.014V25.1815C28.3132 25.306 28.3042 25.297 28.4332 25.297H29.7142C29.8267 25.297 29.8192 25.291 29.8192 25.402V32.338C29.8192 32.4805 29.8312 32.464 29.6917 32.464C29.1367 32.464 28.0267 32.461 27.7357 32.464C27.6637 32.4655 27.6457 32.509 27.6457 32.509L26.6002 34.7875C26.6002 34.7875 26.5792 34.825 26.5882 34.8415C26.5972 34.858 26.6077 34.8535 26.6752 34.8535C29.2972 34.8565 31.9187 34.8575 34.5397 34.8565C34.5847 34.855 34.5907 34.8475 34.5922 34.807V32.4985ZM40.8577 27.3535C40.8577 27.3745 40.8477 27.3865 40.8277 27.3895C40.3087 27.3985 39.7897 27.3955 39.2722 27.3955C39.2512 27.3925 39.2402 27.3805 39.2392 27.3595C39.2332 26.7085 39.2282 26.057 39.2242 25.405C39.2242 25.297 39.2152 25.2985 39.3292 25.3L40.4287 25.2955C40.4902 25.2955 40.5502 25.2985 40.6087 25.318C40.7482 25.3555 40.8487 25.4785 40.8562 25.624C40.8652 26.2705 40.8592 27.3535 40.8577 27.3535ZM44.8627 27.7195C44.4536 27.5055 43.9997 27.3914 43.5382 27.3865H43.2682C43.2082 27.385 43.2082 27.382 43.2052 27.3265V25.744C43.2062 25.546 43.1937 25.349 43.1677 25.153C43.1325 24.8778 43.0551 24.6096 42.9382 24.358C42.7257 23.9012 42.3689 23.5269 41.9227 23.293C41.4604 23.0468 40.9463 22.9142 40.4227 22.906C40.1932 22.9015 39.5722 22.906 39.3427 22.906C39.2377 22.906 39.2407 22.912 39.2407 22.8085V22.069C39.2407 22.0225 39.2257 22.0075 39.1717 22.0105H36.8947C36.8947 22.0105 36.8707 22.0105 36.8602 22.021C36.8522 22.029 36.8482 22.0405 36.8482 22.0555V22.8745C36.8362 22.9285 36.7627 22.897 36.7252 22.9075H35.3002C35.2672 22.9105 35.2582 22.9195 35.2552 22.9555V25.177C35.2552 25.312 35.2492 25.3 35.3782 25.3H36.7477C36.8707 25.3 36.8557 25.492 36.8557 25.492V27.214C36.8557 27.214 36.8602 27.3895 36.7657 27.3895H34.5427C34.4407 27.3895 34.4527 27.5125 34.4527 27.5125V29.68C34.4527 29.68 34.4377 29.782 34.5487 29.782H36.7342C36.8572 29.782 36.8482 29.773 36.8482 29.9005V34.738C36.8482 34.87 36.8377 34.8595 36.9712 34.8595H39.1162C39.2512 34.8595 39.2392 34.87 39.2392 34.7395V29.8345C39.2392 29.791 39.2482 29.782 39.2887 29.782L42.7732 29.7775C42.918 29.7787 43.061 29.8099 43.1932 29.869C43.3123 29.9216 43.4141 30.0068 43.4868 30.1149C43.5596 30.2229 43.6003 30.3493 43.6042 30.4795C43.6162 31.072 43.6087 31.6645 43.6087 32.257C43.6087 32.6455 43.4482 32.8075 43.1137 32.8075H41.2867C41.2522 32.8105 41.2432 32.8195 41.2447 32.857C41.5207 33.512 41.8057 34.1635 42.0997 34.8115C42.1056 34.8225 42.1142 34.8318 42.1247 34.8386C42.1352 34.8454 42.1472 34.8495 42.1597 34.8505C42.4147 34.858 42.6697 34.8535 42.9247 34.855C43.1497 34.852 43.7002 34.861 43.9237 34.84C44.131 34.8238 44.3361 34.7861 44.5357 34.7275C45.4207 34.4575 45.9982 33.6805 45.9997 32.758V29.7865C46.0007 29.5955 45.9837 29.4055 45.9487 29.2165C45.9487 29.3335 45.9052 28.255 44.8627 27.7195Z" fill="white"/>
</svg>
